<mxfile host="app.diagrams.net" modified="2024-05-22T10:59:36.376Z" agent="Mozilla/5.0 (Windows NT 10.0; Win64; x64; rv:126.0) Gecko/20100101 Firefox/126.0" etag="-YCOMRquxKfYboqFRcyM" version="24.4.4" type="github">
  <diagram id="C5RBs43oDa-KdzZeNtuy" name="Page-1">
    <mxGraphModel dx="1551" dy="815" grid="1" gridSize="10" guides="1" tooltips="1" connect="1" arrows="1" fold="1" page="1" pageScale="1" pageWidth="827" pageHeight="1169" math="0" shadow="0">
      <root>
        <mxCell id="WIyWlLk6GJQsqaUBKTNV-0" />
        <mxCell id="WIyWlLk6GJQsqaUBKTNV-1" parent="WIyWlLk6GJQsqaUBKTNV-0" />
        <mxCell id="WIyWlLk6GJQsqaUBKTNV-2" value="" style="rounded=0;html=1;jettySize=auto;orthogonalLoop=1;fontSize=11;endArrow=classic;endFill=1;endSize=8;strokeWidth=1;shadow=0;labelBackgroundColor=none;edgeStyle=orthogonalEdgeStyle;entryX=0.5;entryY=0;entryDx=0;entryDy=0;entryPerimeter=0;" parent="WIyWlLk6GJQsqaUBKTNV-1" source="WIyWlLk6GJQsqaUBKTNV-3" target="IJrdV3IL_r7NS5gYrvFq-0" edge="1">
          <mxGeometry relative="1" as="geometry">
            <mxPoint x="97.5" y="245" as="targetPoint" />
          </mxGeometry>
        </mxCell>
        <mxCell id="WIyWlLk6GJQsqaUBKTNV-3" value="对接待翻译文本" style="rounded=1;whiteSpace=wrap;html=1;fontSize=12;glass=0;strokeWidth=1;shadow=0;" parent="WIyWlLk6GJQsqaUBKTNV-1" vertex="1">
          <mxGeometry x="37.5" y="155" width="120" height="40" as="geometry" />
        </mxCell>
        <mxCell id="IJrdV3IL_r7NS5gYrvFq-50" style="edgeStyle=orthogonalEdgeStyle;rounded=0;orthogonalLoop=1;jettySize=auto;html=1;entryX=0;entryY=0.5;entryDx=0;entryDy=0;strokeColor=default;align=center;verticalAlign=middle;fontFamily=Helvetica;fontSize=11;fontColor=default;labelBackgroundColor=default;endArrow=classic;endFill=1;" parent="WIyWlLk6GJQsqaUBKTNV-1" source="IJrdV3IL_r7NS5gYrvFq-0" target="IJrdV3IL_r7NS5gYrvFq-1" edge="1">
          <mxGeometry relative="1" as="geometry" />
        </mxCell>
        <mxCell id="IJrdV3IL_r7NS5gYrvFq-0" value="&lt;div&gt;待翻译文本是否有&lt;/div&gt;&lt;div&gt;特殊的翻译要求？&lt;/div&gt;" style="strokeWidth=2;html=1;shape=mxgraph.flowchart.decision;whiteSpace=wrap;" parent="WIyWlLk6GJQsqaUBKTNV-1" vertex="1">
          <mxGeometry x="20" y="235" width="155" height="80" as="geometry" />
        </mxCell>
        <mxCell id="IJrdV3IL_r7NS5gYrvFq-1" value="按照特殊的要求处理" style="rounded=1;whiteSpace=wrap;html=1;fontSize=12;glass=0;strokeWidth=1;shadow=0;" parent="WIyWlLk6GJQsqaUBKTNV-1" vertex="1">
          <mxGeometry x="231.5" y="255" width="120" height="40" as="geometry" />
        </mxCell>
        <mxCell id="IJrdV3IL_r7NS5gYrvFq-29" style="edgeStyle=orthogonalEdgeStyle;rounded=0;orthogonalLoop=1;jettySize=auto;html=1;entryX=0;entryY=0.5;entryDx=0;entryDy=0;strokeColor=default;align=center;verticalAlign=middle;fontFamily=Helvetica;fontSize=11;fontColor=default;labelBackgroundColor=default;endArrow=classic;endFill=1;" parent="WIyWlLk6GJQsqaUBKTNV-1" source="IJrdV3IL_r7NS5gYrvFq-2" target="IJrdV3IL_r7NS5gYrvFq-3" edge="1">
          <mxGeometry relative="1" as="geometry" />
        </mxCell>
        <mxCell id="IJrdV3IL_r7NS5gYrvFq-31" style="edgeStyle=orthogonalEdgeStyle;rounded=0;orthogonalLoop=1;jettySize=auto;html=1;entryX=0.5;entryY=0;entryDx=0;entryDy=0;strokeColor=default;align=center;verticalAlign=middle;fontFamily=Helvetica;fontSize=11;fontColor=default;labelBackgroundColor=default;endArrow=classic;endFill=1;" parent="WIyWlLk6GJQsqaUBKTNV-1" source="IJrdV3IL_r7NS5gYrvFq-2" target="IJrdV3IL_r7NS5gYrvFq-16" edge="1">
          <mxGeometry relative="1" as="geometry" />
        </mxCell>
        <mxCell id="IJrdV3IL_r7NS5gYrvFq-2" value="文本是否进行了切分？" style="strokeWidth=2;html=1;shape=mxgraph.flowchart.decision;whiteSpace=wrap;" parent="WIyWlLk6GJQsqaUBKTNV-1" vertex="1">
          <mxGeometry x="20.5" y="355" width="155" height="80" as="geometry" />
        </mxCell>
        <mxCell id="IJrdV3IL_r7NS5gYrvFq-30" style="edgeStyle=orthogonalEdgeStyle;rounded=0;orthogonalLoop=1;jettySize=auto;html=1;entryX=1;entryY=0.5;entryDx=0;entryDy=0;strokeColor=default;align=center;verticalAlign=middle;fontFamily=Helvetica;fontSize=11;fontColor=default;labelBackgroundColor=default;endArrow=classic;endFill=1;" parent="WIyWlLk6GJQsqaUBKTNV-1" source="IJrdV3IL_r7NS5gYrvFq-3" target="IJrdV3IL_r7NS5gYrvFq-16" edge="1">
          <mxGeometry relative="1" as="geometry">
            <Array as="points">
              <mxPoint x="291.5" y="495" />
            </Array>
          </mxGeometry>
        </mxCell>
        <mxCell id="IJrdV3IL_r7NS5gYrvFq-3" value="对文本进行切分处理" style="rounded=1;whiteSpace=wrap;html=1;fontSize=12;glass=0;strokeWidth=1;shadow=0;" parent="WIyWlLk6GJQsqaUBKTNV-1" vertex="1">
          <mxGeometry x="231.5" y="375" width="120" height="40" as="geometry" />
        </mxCell>
        <mxCell id="IJrdV3IL_r7NS5gYrvFq-34" style="edgeStyle=orthogonalEdgeStyle;rounded=0;orthogonalLoop=1;jettySize=auto;html=1;strokeColor=default;align=center;verticalAlign=middle;fontFamily=Helvetica;fontSize=11;fontColor=default;labelBackgroundColor=default;endArrow=classic;endFill=1;" parent="WIyWlLk6GJQsqaUBKTNV-1" source="IJrdV3IL_r7NS5gYrvFq-4" target="IJrdV3IL_r7NS5gYrvFq-11" edge="1">
          <mxGeometry relative="1" as="geometry" />
        </mxCell>
        <mxCell id="IJrdV3IL_r7NS5gYrvFq-35" style="edgeStyle=orthogonalEdgeStyle;rounded=0;orthogonalLoop=1;jettySize=auto;html=1;strokeColor=default;align=center;verticalAlign=middle;fontFamily=Helvetica;fontSize=11;fontColor=default;labelBackgroundColor=default;endArrow=classic;endFill=1;" parent="WIyWlLk6GJQsqaUBKTNV-1" source="IJrdV3IL_r7NS5gYrvFq-4" target="IJrdV3IL_r7NS5gYrvFq-6" edge="1">
          <mxGeometry relative="1" as="geometry" />
        </mxCell>
        <mxCell id="IJrdV3IL_r7NS5gYrvFq-4" value="&lt;div&gt;待翻译文本是否涉及&lt;/div&gt;&lt;div&gt;人名与专有名词？&lt;br&gt;&lt;/div&gt;" style="strokeWidth=2;html=1;shape=mxgraph.flowchart.decision;whiteSpace=wrap;" parent="WIyWlLk6GJQsqaUBKTNV-1" vertex="1">
          <mxGeometry x="380" y="10" width="155" height="80" as="geometry" />
        </mxCell>
        <mxCell id="IJrdV3IL_r7NS5gYrvFq-33" style="edgeStyle=orthogonalEdgeStyle;rounded=0;orthogonalLoop=1;jettySize=auto;html=1;strokeColor=default;align=center;verticalAlign=middle;fontFamily=Helvetica;fontSize=11;fontColor=default;labelBackgroundColor=default;endArrow=classic;endFill=1;entryX=0;entryY=0.5;entryDx=0;entryDy=0;entryPerimeter=0;" parent="WIyWlLk6GJQsqaUBKTNV-1" source="IJrdV3IL_r7NS5gYrvFq-5" target="IJrdV3IL_r7NS5gYrvFq-4" edge="1">
          <mxGeometry relative="1" as="geometry">
            <Array as="points">
              <mxPoint x="98" y="620" />
              <mxPoint x="360" y="620" />
              <mxPoint x="360" y="50" />
            </Array>
          </mxGeometry>
        </mxCell>
        <mxCell id="IJrdV3IL_r7NS5gYrvFq-5" value="准备翻译工作" style="rounded=1;whiteSpace=wrap;html=1;fontSize=12;glass=0;strokeWidth=1;shadow=0;" parent="WIyWlLk6GJQsqaUBKTNV-1" vertex="1">
          <mxGeometry x="38" y="555" width="120" height="40" as="geometry" />
        </mxCell>
        <mxCell id="IJrdV3IL_r7NS5gYrvFq-37" style="edgeStyle=orthogonalEdgeStyle;rounded=0;orthogonalLoop=1;jettySize=auto;html=1;entryX=0;entryY=0.5;entryDx=0;entryDy=0;strokeColor=default;align=center;verticalAlign=middle;fontFamily=Helvetica;fontSize=11;fontColor=default;labelBackgroundColor=default;endArrow=classic;endFill=1;" parent="WIyWlLk6GJQsqaUBKTNV-1" source="IJrdV3IL_r7NS5gYrvFq-6" target="IJrdV3IL_r7NS5gYrvFq-12" edge="1">
          <mxGeometry relative="1" as="geometry" />
        </mxCell>
        <mxCell id="IJrdV3IL_r7NS5gYrvFq-6" value="&lt;div&gt;待翻译文本是否涉及&lt;/div&gt;&lt;div&gt;宏及其他翻译要素？&lt;br&gt;&lt;/div&gt;" style="strokeWidth=2;html=1;shape=mxgraph.flowchart.decision;whiteSpace=wrap;" parent="WIyWlLk6GJQsqaUBKTNV-1" vertex="1">
          <mxGeometry x="380.5" y="130" width="155" height="80" as="geometry" />
        </mxCell>
        <mxCell id="IJrdV3IL_r7NS5gYrvFq-22" style="edgeStyle=orthogonalEdgeStyle;rounded=0;orthogonalLoop=1;jettySize=auto;html=1;entryX=0.5;entryY=0;entryDx=0;entryDy=0;strokeColor=default;align=center;verticalAlign=middle;fontFamily=Helvetica;fontSize=11;fontColor=default;labelBackgroundColor=default;endArrow=classic;endFill=1;" parent="WIyWlLk6GJQsqaUBKTNV-1" source="IJrdV3IL_r7NS5gYrvFq-7" target="IJrdV3IL_r7NS5gYrvFq-13" edge="1">
          <mxGeometry relative="1" as="geometry" />
        </mxCell>
        <mxCell id="IJrdV3IL_r7NS5gYrvFq-23" style="edgeStyle=orthogonalEdgeStyle;rounded=0;orthogonalLoop=1;jettySize=auto;html=1;entryX=0;entryY=0.5;entryDx=0;entryDy=0;strokeColor=default;align=center;verticalAlign=middle;fontFamily=Helvetica;fontSize=11;fontColor=default;labelBackgroundColor=default;endArrow=classic;endFill=1;" parent="WIyWlLk6GJQsqaUBKTNV-1" source="IJrdV3IL_r7NS5gYrvFq-7" target="IJrdV3IL_r7NS5gYrvFq-9" edge="1">
          <mxGeometry relative="1" as="geometry" />
        </mxCell>
        <mxCell id="IJrdV3IL_r7NS5gYrvFq-7" value="&lt;div&gt;待翻译文本是否&lt;/div&gt;&lt;div&gt;出现争议？&lt;br&gt;&lt;/div&gt;" style="strokeWidth=2;html=1;shape=mxgraph.flowchart.decision;whiteSpace=wrap;" parent="WIyWlLk6GJQsqaUBKTNV-1" vertex="1">
          <mxGeometry x="380.5" y="250" width="155" height="80" as="geometry" />
        </mxCell>
        <mxCell id="IJrdV3IL_r7NS5gYrvFq-25" style="edgeStyle=orthogonalEdgeStyle;rounded=0;orthogonalLoop=1;jettySize=auto;html=1;entryX=1;entryY=0.5;entryDx=0;entryDy=0;strokeColor=default;align=center;verticalAlign=middle;fontFamily=Helvetica;fontSize=11;fontColor=default;labelBackgroundColor=default;endArrow=classic;endFill=1;" parent="WIyWlLk6GJQsqaUBKTNV-1" source="IJrdV3IL_r7NS5gYrvFq-8" target="IJrdV3IL_r7NS5gYrvFq-13" edge="1">
          <mxGeometry relative="1" as="geometry" />
        </mxCell>
        <mxCell id="IJrdV3IL_r7NS5gYrvFq-26" style="edgeStyle=orthogonalEdgeStyle;rounded=0;orthogonalLoop=1;jettySize=auto;html=1;strokeColor=default;align=center;verticalAlign=middle;fontFamily=Helvetica;fontSize=11;fontColor=default;labelBackgroundColor=default;endArrow=classic;endFill=1;" parent="WIyWlLk6GJQsqaUBKTNV-1" source="IJrdV3IL_r7NS5gYrvFq-8" target="IJrdV3IL_r7NS5gYrvFq-10" edge="1">
          <mxGeometry relative="1" as="geometry">
            <mxPoint x="786.5" y="390" as="targetPoint" />
          </mxGeometry>
        </mxCell>
        <mxCell id="IJrdV3IL_r7NS5gYrvFq-8" value="处理结果是否满意？" style="strokeWidth=2;html=1;shape=mxgraph.flowchart.decision;whiteSpace=wrap;" parent="WIyWlLk6GJQsqaUBKTNV-1" vertex="1">
          <mxGeometry x="573" y="350" width="155" height="80" as="geometry" />
        </mxCell>
        <mxCell id="IJrdV3IL_r7NS5gYrvFq-24" style="edgeStyle=orthogonalEdgeStyle;rounded=0;orthogonalLoop=1;jettySize=auto;html=1;strokeColor=default;align=center;verticalAlign=middle;fontFamily=Helvetica;fontSize=11;fontColor=default;labelBackgroundColor=default;endArrow=classic;endFill=1;" parent="WIyWlLk6GJQsqaUBKTNV-1" source="IJrdV3IL_r7NS5gYrvFq-9" target="IJrdV3IL_r7NS5gYrvFq-8" edge="1">
          <mxGeometry relative="1" as="geometry" />
        </mxCell>
        <mxCell id="IJrdV3IL_r7NS5gYrvFq-9" value="处理争议" style="rounded=1;whiteSpace=wrap;html=1;fontSize=12;glass=0;strokeWidth=1;shadow=0;" parent="WIyWlLk6GJQsqaUBKTNV-1" vertex="1">
          <mxGeometry x="590.5" y="270" width="120" height="40" as="geometry" />
        </mxCell>
        <mxCell id="IJrdV3IL_r7NS5gYrvFq-57" style="edgeStyle=orthogonalEdgeStyle;rounded=0;orthogonalLoop=1;jettySize=auto;html=1;entryX=1;entryY=0.5;entryDx=0;entryDy=0;strokeColor=default;align=center;verticalAlign=middle;fontFamily=Helvetica;fontSize=11;fontColor=default;labelBackgroundColor=default;endArrow=classic;endFill=1;" parent="WIyWlLk6GJQsqaUBKTNV-1" source="IJrdV3IL_r7NS5gYrvFq-10" target="IJrdV3IL_r7NS5gYrvFq-15" edge="1">
          <mxGeometry relative="1" as="geometry">
            <Array as="points">
              <mxPoint x="847" y="530" />
            </Array>
            <mxPoint x="846.5294117647059" y="415" as="sourcePoint" />
          </mxGeometry>
        </mxCell>
        <mxCell id="IJrdV3IL_r7NS5gYrvFq-10" value="暂时使用带有争议的翻译，搁置该段文本的翻译" style="rounded=1;whiteSpace=wrap;html=1;fontSize=12;glass=0;strokeWidth=1;shadow=0;" parent="WIyWlLk6GJQsqaUBKTNV-1" vertex="1">
          <mxGeometry x="786.5" y="365" width="120" height="50" as="geometry" />
        </mxCell>
        <mxCell id="IJrdV3IL_r7NS5gYrvFq-11" value="按照名词表处理专有名词" style="rounded=1;whiteSpace=wrap;html=1;fontSize=12;glass=0;strokeWidth=1;shadow=0;" parent="WIyWlLk6GJQsqaUBKTNV-1" vertex="1">
          <mxGeometry x="590.5" y="30" width="120" height="40" as="geometry" />
        </mxCell>
        <mxCell id="IJrdV3IL_r7NS5gYrvFq-39" style="edgeStyle=orthogonalEdgeStyle;rounded=0;orthogonalLoop=1;jettySize=auto;html=1;strokeColor=default;align=center;verticalAlign=middle;fontFamily=Helvetica;fontSize=11;fontColor=default;labelBackgroundColor=default;endArrow=classic;endFill=1;" parent="WIyWlLk6GJQsqaUBKTNV-1" source="IJrdV3IL_r7NS5gYrvFq-12" edge="1" target="IJrdV3IL_r7NS5gYrvFq-7">
          <mxGeometry relative="1" as="geometry">
            <mxPoint x="457" y="250" as="targetPoint" />
            <Array as="points">
              <mxPoint x="650" y="230" />
              <mxPoint x="458" y="230" />
            </Array>
          </mxGeometry>
        </mxCell>
        <mxCell id="IJrdV3IL_r7NS5gYrvFq-12" value="处理宏或其他翻译要素" style="rounded=1;whiteSpace=wrap;html=1;fontSize=12;glass=0;strokeWidth=1;shadow=0;" parent="WIyWlLk6GJQsqaUBKTNV-1" vertex="1">
          <mxGeometry x="590.5" y="150" width="120" height="40" as="geometry" />
        </mxCell>
        <mxCell id="IJrdV3IL_r7NS5gYrvFq-41" style="edgeStyle=orthogonalEdgeStyle;rounded=0;orthogonalLoop=1;jettySize=auto;html=1;entryX=0.5;entryY=0;entryDx=0;entryDy=0;strokeColor=default;align=center;verticalAlign=middle;fontFamily=Helvetica;fontSize=11;fontColor=default;labelBackgroundColor=default;endArrow=classic;endFill=1;" parent="WIyWlLk6GJQsqaUBKTNV-1" source="IJrdV3IL_r7NS5gYrvFq-13" target="IJrdV3IL_r7NS5gYrvFq-40" edge="1">
          <mxGeometry relative="1" as="geometry" />
        </mxCell>
        <mxCell id="IJrdV3IL_r7NS5gYrvFq-13" value="参考该文本的上下文" style="rounded=1;whiteSpace=wrap;html=1;fontSize=12;glass=0;strokeWidth=1;shadow=0;" parent="WIyWlLk6GJQsqaUBKTNV-1" vertex="1">
          <mxGeometry x="398" y="370" width="120" height="40" as="geometry" />
        </mxCell>
        <mxCell id="IJrdV3IL_r7NS5gYrvFq-20" style="edgeStyle=orthogonalEdgeStyle;rounded=0;orthogonalLoop=1;jettySize=auto;html=1;entryX=0.5;entryY=0;entryDx=0;entryDy=0;strokeColor=default;align=center;verticalAlign=middle;fontFamily=Helvetica;fontSize=11;fontColor=default;labelBackgroundColor=default;endArrow=classic;endFill=1;" parent="WIyWlLk6GJQsqaUBKTNV-1" source="IJrdV3IL_r7NS5gYrvFq-15" target="IJrdV3IL_r7NS5gYrvFq-18" edge="1">
          <mxGeometry relative="1" as="geometry" />
        </mxCell>
        <mxCell id="IJrdV3IL_r7NS5gYrvFq-15" value="对翻译后的文本进行检查" style="rounded=1;whiteSpace=wrap;html=1;fontSize=12;glass=0;strokeWidth=1;shadow=0;" parent="WIyWlLk6GJQsqaUBKTNV-1" vertex="1">
          <mxGeometry x="398" y="510" width="120" height="40" as="geometry" />
        </mxCell>
        <mxCell id="IJrdV3IL_r7NS5gYrvFq-32" style="edgeStyle=orthogonalEdgeStyle;rounded=0;orthogonalLoop=1;jettySize=auto;html=1;strokeColor=default;align=center;verticalAlign=middle;fontFamily=Helvetica;fontSize=11;fontColor=default;labelBackgroundColor=default;endArrow=classic;endFill=1;" parent="WIyWlLk6GJQsqaUBKTNV-1" source="IJrdV3IL_r7NS5gYrvFq-16" target="IJrdV3IL_r7NS5gYrvFq-5" edge="1">
          <mxGeometry relative="1" as="geometry" />
        </mxCell>
        <mxCell id="IJrdV3IL_r7NS5gYrvFq-16" value="阅读翻译规范与文化报告" style="rounded=1;whiteSpace=wrap;html=1;fontSize=12;glass=0;strokeWidth=1;shadow=0;" parent="WIyWlLk6GJQsqaUBKTNV-1" vertex="1">
          <mxGeometry x="38.5" y="475" width="120" height="40" as="geometry" />
        </mxCell>
        <mxCell id="s_4uR1PrCwGJxE46l13c-2" style="edgeStyle=orthogonalEdgeStyle;rounded=0;orthogonalLoop=1;jettySize=auto;html=1;" edge="1" parent="WIyWlLk6GJQsqaUBKTNV-1" source="IJrdV3IL_r7NS5gYrvFq-17" target="s_4uR1PrCwGJxE46l13c-1">
          <mxGeometry relative="1" as="geometry" />
        </mxCell>
        <mxCell id="IJrdV3IL_r7NS5gYrvFq-17" value="交付翻译后的文本" style="rounded=1;whiteSpace=wrap;html=1;fontSize=12;glass=0;strokeWidth=1;shadow=0;" parent="WIyWlLk6GJQsqaUBKTNV-1" vertex="1">
          <mxGeometry x="590.5" y="580" width="120" height="40" as="geometry" />
        </mxCell>
        <mxCell id="IJrdV3IL_r7NS5gYrvFq-19" style="edgeStyle=orthogonalEdgeStyle;rounded=0;orthogonalLoop=1;jettySize=auto;html=1;entryX=0;entryY=0.5;entryDx=0;entryDy=0;endArrow=classic;endFill=1;" parent="WIyWlLk6GJQsqaUBKTNV-1" source="IJrdV3IL_r7NS5gYrvFq-18" target="IJrdV3IL_r7NS5gYrvFq-17" edge="1">
          <mxGeometry relative="1" as="geometry" />
        </mxCell>
        <mxCell id="IJrdV3IL_r7NS5gYrvFq-18" value="整理翻译后的文本" style="rounded=1;whiteSpace=wrap;html=1;fontSize=12;glass=0;strokeWidth=1;shadow=0;" parent="WIyWlLk6GJQsqaUBKTNV-1" vertex="1">
          <mxGeometry x="398" y="580" width="120" height="40" as="geometry" />
        </mxCell>
        <mxCell id="IJrdV3IL_r7NS5gYrvFq-28" style="edgeStyle=orthogonalEdgeStyle;rounded=0;orthogonalLoop=1;jettySize=auto;html=1;entryX=0.5;entryY=0;entryDx=0;entryDy=0;entryPerimeter=0;strokeColor=default;align=center;verticalAlign=middle;fontFamily=Helvetica;fontSize=11;fontColor=default;labelBackgroundColor=default;endArrow=classic;endFill=1;" parent="WIyWlLk6GJQsqaUBKTNV-1" source="IJrdV3IL_r7NS5gYrvFq-0" target="IJrdV3IL_r7NS5gYrvFq-2" edge="1">
          <mxGeometry relative="1" as="geometry" />
        </mxCell>
        <mxCell id="IJrdV3IL_r7NS5gYrvFq-36" style="edgeStyle=orthogonalEdgeStyle;rounded=0;orthogonalLoop=1;jettySize=auto;html=1;entryX=0.5;entryY=0;entryDx=0;entryDy=0;entryPerimeter=0;strokeColor=default;align=center;verticalAlign=middle;fontFamily=Helvetica;fontSize=11;fontColor=default;labelBackgroundColor=default;endArrow=classic;endFill=1;" parent="WIyWlLk6GJQsqaUBKTNV-1" source="IJrdV3IL_r7NS5gYrvFq-11" target="IJrdV3IL_r7NS5gYrvFq-6" edge="1">
          <mxGeometry relative="1" as="geometry">
            <Array as="points">
              <mxPoint x="651" y="100" />
              <mxPoint x="458" y="100" />
            </Array>
          </mxGeometry>
        </mxCell>
        <mxCell id="IJrdV3IL_r7NS5gYrvFq-38" style="edgeStyle=orthogonalEdgeStyle;rounded=0;orthogonalLoop=1;jettySize=auto;html=1;entryX=0.5;entryY=0;entryDx=0;entryDy=0;entryPerimeter=0;strokeColor=default;align=center;verticalAlign=middle;fontFamily=Helvetica;fontSize=11;fontColor=default;labelBackgroundColor=default;endArrow=classic;endFill=1;" parent="WIyWlLk6GJQsqaUBKTNV-1" source="IJrdV3IL_r7NS5gYrvFq-6" target="IJrdV3IL_r7NS5gYrvFq-7" edge="1">
          <mxGeometry relative="1" as="geometry" />
        </mxCell>
        <mxCell id="IJrdV3IL_r7NS5gYrvFq-42" style="edgeStyle=orthogonalEdgeStyle;rounded=0;orthogonalLoop=1;jettySize=auto;html=1;strokeColor=default;align=center;verticalAlign=middle;fontFamily=Helvetica;fontSize=11;fontColor=default;labelBackgroundColor=default;endArrow=classic;endFill=1;" parent="WIyWlLk6GJQsqaUBKTNV-1" source="IJrdV3IL_r7NS5gYrvFq-40" target="IJrdV3IL_r7NS5gYrvFq-15" edge="1">
          <mxGeometry relative="1" as="geometry" />
        </mxCell>
        <mxCell id="IJrdV3IL_r7NS5gYrvFq-40" value="翻译文本" style="rounded=1;whiteSpace=wrap;html=1;fontSize=12;glass=0;strokeWidth=1;shadow=0;" parent="WIyWlLk6GJQsqaUBKTNV-1" vertex="1">
          <mxGeometry x="398" y="440" width="120" height="40" as="geometry" />
        </mxCell>
        <mxCell id="IJrdV3IL_r7NS5gYrvFq-43" value="No" style="text;html=1;align=center;verticalAlign=middle;whiteSpace=wrap;rounded=0;fontFamily=Helvetica;fontSize=11;fontColor=default;labelBackgroundColor=default;" parent="WIyWlLk6GJQsqaUBKTNV-1" vertex="1">
          <mxGeometry x="171" y="365" width="60" height="30" as="geometry" />
        </mxCell>
        <mxCell id="IJrdV3IL_r7NS5gYrvFq-44" value="Yes" style="text;html=1;align=center;verticalAlign=middle;resizable=0;points=[];autosize=1;strokeColor=none;fillColor=none;fontFamily=Helvetica;fontSize=11;fontColor=default;labelBackgroundColor=default;" parent="WIyWlLk6GJQsqaUBKTNV-1" vertex="1">
          <mxGeometry x="100" y="435" width="40" height="30" as="geometry" />
        </mxCell>
        <mxCell id="IJrdV3IL_r7NS5gYrvFq-46" value="Yes" style="text;html=1;align=center;verticalAlign=middle;resizable=0;points=[];autosize=1;strokeColor=none;fillColor=none;fontFamily=Helvetica;fontSize=11;fontColor=default;labelBackgroundColor=default;" parent="WIyWlLk6GJQsqaUBKTNV-1" vertex="1">
          <mxGeometry x="540.5" y="20" width="40" height="30" as="geometry" />
        </mxCell>
        <mxCell id="IJrdV3IL_r7NS5gYrvFq-47" value="No" style="text;html=1;align=center;verticalAlign=middle;whiteSpace=wrap;rounded=0;fontFamily=Helvetica;fontSize=11;fontColor=default;labelBackgroundColor=default;" parent="WIyWlLk6GJQsqaUBKTNV-1" vertex="1">
          <mxGeometry x="396.9999999999999" y="90" width="60" height="30" as="geometry" />
        </mxCell>
        <mxCell id="IJrdV3IL_r7NS5gYrvFq-48" value="Yes" style="text;html=1;align=center;verticalAlign=middle;resizable=0;points=[];autosize=1;strokeColor=none;fillColor=none;fontFamily=Helvetica;fontSize=11;fontColor=default;labelBackgroundColor=default;" parent="WIyWlLk6GJQsqaUBKTNV-1" vertex="1">
          <mxGeometry x="540.5" y="140" width="40" height="30" as="geometry" />
        </mxCell>
        <mxCell id="IJrdV3IL_r7NS5gYrvFq-49" value="No" style="text;html=1;align=center;verticalAlign=middle;whiteSpace=wrap;rounded=0;fontFamily=Helvetica;fontSize=11;fontColor=default;labelBackgroundColor=default;" parent="WIyWlLk6GJQsqaUBKTNV-1" vertex="1">
          <mxGeometry x="396.9999999999999" y="210" width="60" height="30" as="geometry" />
        </mxCell>
        <mxCell id="IJrdV3IL_r7NS5gYrvFq-51" value="Yes" style="text;html=1;align=center;verticalAlign=middle;resizable=0;points=[];autosize=1;strokeColor=none;fillColor=none;fontFamily=Helvetica;fontSize=11;fontColor=default;labelBackgroundColor=default;" parent="WIyWlLk6GJQsqaUBKTNV-1" vertex="1">
          <mxGeometry x="181" y="245" width="40" height="30" as="geometry" />
        </mxCell>
        <mxCell id="IJrdV3IL_r7NS5gYrvFq-52" value="No" style="text;html=1;align=center;verticalAlign=middle;whiteSpace=wrap;rounded=0;fontFamily=Helvetica;fontSize=11;fontColor=default;labelBackgroundColor=default;" parent="WIyWlLk6GJQsqaUBKTNV-1" vertex="1">
          <mxGeometry x="37.499999999999886" y="315" width="60" height="30" as="geometry" />
        </mxCell>
        <mxCell id="IJrdV3IL_r7NS5gYrvFq-53" value="Yes" style="text;html=1;align=center;verticalAlign=middle;resizable=0;points=[];autosize=1;strokeColor=none;fillColor=none;fontFamily=Helvetica;fontSize=11;fontColor=default;labelBackgroundColor=default;" parent="WIyWlLk6GJQsqaUBKTNV-1" vertex="1">
          <mxGeometry x="540.5" y="260" width="40" height="30" as="geometry" />
        </mxCell>
        <mxCell id="IJrdV3IL_r7NS5gYrvFq-54" value="Yes" style="text;html=1;align=center;verticalAlign=middle;resizable=0;points=[];autosize=1;strokeColor=none;fillColor=none;fontFamily=Helvetica;fontSize=11;fontColor=default;labelBackgroundColor=default;" parent="WIyWlLk6GJQsqaUBKTNV-1" vertex="1">
          <mxGeometry x="530.5" y="360" width="40" height="30" as="geometry" />
        </mxCell>
        <mxCell id="IJrdV3IL_r7NS5gYrvFq-55" value="No" style="text;html=1;align=center;verticalAlign=middle;whiteSpace=wrap;rounded=0;fontFamily=Helvetica;fontSize=11;fontColor=default;labelBackgroundColor=default;" parent="WIyWlLk6GJQsqaUBKTNV-1" vertex="1">
          <mxGeometry x="726.4999999999999" y="360" width="60" height="30" as="geometry" />
        </mxCell>
        <mxCell id="IJrdV3IL_r7NS5gYrvFq-56" value="No" style="text;html=1;align=center;verticalAlign=middle;whiteSpace=wrap;rounded=0;fontFamily=Helvetica;fontSize=11;fontColor=default;labelBackgroundColor=default;" parent="WIyWlLk6GJQsqaUBKTNV-1" vertex="1">
          <mxGeometry x="397.9999999999999" y="330" width="60" height="30" as="geometry" />
        </mxCell>
        <mxCell id="s_4uR1PrCwGJxE46l13c-3" style="edgeStyle=orthogonalEdgeStyle;rounded=0;orthogonalLoop=1;jettySize=auto;html=1;" edge="1" parent="WIyWlLk6GJQsqaUBKTNV-1" source="s_4uR1PrCwGJxE46l13c-0" target="WIyWlLk6GJQsqaUBKTNV-3">
          <mxGeometry relative="1" as="geometry" />
        </mxCell>
        <mxCell id="s_4uR1PrCwGJxE46l13c-0" value="" style="ellipse;fillColor=strokeColor;html=1;" vertex="1" parent="WIyWlLk6GJQsqaUBKTNV-1">
          <mxGeometry x="82.5" y="80" width="30" height="30" as="geometry" />
        </mxCell>
        <mxCell id="s_4uR1PrCwGJxE46l13c-1" value="" style="ellipse;html=1;shape=endState;fillColor=strokeColor;" vertex="1" parent="WIyWlLk6GJQsqaUBKTNV-1">
          <mxGeometry x="831.5" y="585" width="30" height="30" as="geometry" />
        </mxCell>
      </root>
    </mxGraphModel>
  </diagram>
</mxfile>
